<svg width="103" height="24" viewBox="0 0 103 24" fill="none" xmlns="http://www.w3.org/2000/svg">
<g filter="url(#filter0_d_301_2)">
<path d="M9.336 17.312C12.24 17.312 14.52 16.112 16.152 14.288V8.144H8.52V11.12H12.744V13.04C12.096 13.64 10.752 14.264 9.336 14.264C6.432 14.264 4.32 12.032 4.32 9.008C4.32 5.984 6.432 3.752 9.336 3.752C11.04 3.752 12.408 4.712 13.128 5.84L15.96 4.304C14.76 2.408 12.672 0.727999 9.336 0.727999C4.656 0.727999 0.816 3.944 0.816 9.008C0.816 14.048 4.656 17.312 9.336 17.312ZM21.8334 17V9.344C22.3374 8.6 23.6814 8.024 24.6894 8.024C25.0254 8.024 25.3134 8.048 25.5294 8.096V5.12C24.0894 5.12 22.6494 5.96 21.8334 6.992V5.408H18.7854V17H21.8334ZM32.8099 17.288C36.6499 17.288 38.9539 14.504 38.9539 11.192C38.9539 7.904 36.6499 5.12 32.8099 5.12C28.9939 5.12 26.6899 7.904 26.6899 11.192C26.6899 14.504 28.9939 17.288 32.8099 17.288ZM32.8099 14.576C30.9139 14.576 29.8579 13.016 29.8579 11.192C29.8579 9.392 30.9139 7.832 32.8099 7.832C34.7059 7.832 35.7859 9.392 35.7859 11.192C35.7859 13.016 34.7059 14.576 32.8099 14.576ZM52.0871 17V5.408H49.0391V13.256C48.5111 13.928 47.5751 14.576 46.3991 14.576C45.1031 14.576 44.2631 14.048 44.2631 12.44V5.408H41.2151V13.64C41.2151 15.896 42.4151 17.288 44.9591 17.288C46.8551 17.288 48.2471 16.424 49.0391 15.536V17H52.0871ZM61.7376 17.288C64.7136 17.288 66.8736 15.056 66.8736 11.192C66.8736 7.328 64.7136 5.12 61.7376 5.12C60.3216 5.12 59.0496 5.744 58.1616 6.872V5.408H55.1136V21.416H58.1616V15.512C59.0976 16.712 60.3696 17.288 61.7376 17.288ZM60.7776 14.576C59.7936 14.576 58.6656 13.976 58.1616 13.256V9.152C58.6656 8.408 59.7936 7.832 60.7776 7.832C62.5296 7.832 63.7056 9.2 63.7056 11.192C63.7056 13.208 62.5296 14.576 60.7776 14.576Z" fill="#919EF7"/>
<path d="M86.5298 17V0.991999H81.7298L77.8418 10.664L73.9538 0.991999H69.1777V17H72.5858V5.792L77.0978 17H78.5858L83.0978 5.792V17H86.5298ZM95.085 17.288C96.885 17.288 98.709 16.736 99.861 15.68L98.517 13.712C97.773 14.432 96.405 14.864 95.421 14.864C93.453 14.864 92.277 13.64 92.085 12.176H100.701V11.504C100.701 7.712 98.349 5.12 94.893 5.12C91.365 5.12 88.893 7.832 88.893 11.192C88.893 14.912 91.557 17.288 95.085 17.288ZM97.749 10.112H92.037C92.181 8.96 92.997 7.544 94.893 7.544C96.909 7.544 97.677 9.008 97.749 10.112Z" fill="#FF8D39"/>
</g>
<defs>
<filter id="filter0_d_301_2" x="0.815918" y="0.728027" width="101.885" height="22.688" filterUnits="userSpaceOnUse" color-interpolation-filters="sRGB">
<feFlood flood-opacity="0" result="BackgroundImageFix"/>
<feColorMatrix in="SourceAlpha" type="matrix" values="0 0 0 0 0 0 0 0 0 0 0 0 0 0 0 0 0 0 127 0" result="hardAlpha"/>
<feOffset dx="1" dy="1"/>
<feGaussianBlur stdDeviation="0.5"/>
<feColorMatrix type="matrix" values="0 0 0 0 0 0 0 0 0 0 0 0 0 0 0 0 0 0 0.25 0"/>
<feBlend mode="normal" in2="BackgroundImageFix" result="effect1_dropShadow_301_2"/>
<feBlend mode="normal" in="SourceGraphic" in2="effect1_dropShadow_301_2" result="shape"/>
</filter>
</defs>
</svg>
