<?xml version="1.0" standalone="no"?>
<!DOCTYPE svg PUBLIC "-//W3C//DTD SVG 20010904//EN"
 "http://www.w3.org/TR/2001/REC-SVG-20010904/DTD/svg10.dtd">
<svg version="1.0" xmlns="http://www.w3.org/2000/svg"
 width="170.000000pt" height="170.000000pt" viewBox="0 0 170.000000 170.000000"
 preserveAspectRatio="xMidYMid meet">
<metadata>
Created by potrace 1.14, written by Peter Selinger 2001-2017
</metadata>
<g transform="translate(0.000000,170.000000) scale(0.100000,-0.100000)"
fill="#000000" stroke="none">
<path d="M155 997 c-148 -48 -102 -267 53 -250 36 4 91 31 93 45 0 4 1 27 1
51 l1 42 -61 3 c-61 3 -62 2 -62 -23 0 -22 4 -25 35 -25 25 0 35 -4 35 -15 0
-23 -44 -36 -80 -24 -69 24 -68 122 1 147 25 10 79 -3 79 -19 0 -5 11 -4 24 2
28 13 26 28 -7 48 -34 22 -79 29 -112 18z"/>
<path d="M1133 866 l1 -126 27 0 c28 0 28 0 31 78 l3 77 30 -78 c20 -52 35
-77 44 -75 8 2 28 37 45 78 l31 75 3 -77 c3 -78 3 -78 31 -78 l28 0 0 125 -1
125 -38 0 c-31 0 -40 -5 -47 -22 -5 -13 -19 -45 -31 -73 l-22 -50 -28 70 c-27
69 -28 70 -68 73 l-40 3 1 -125z"/>
<path d="M418 926 c-16 -8 -28 -11 -28 -5 0 5 -11 9 -25 9 -25 0 -25 -1 -25
-90 0 -89 0 -90 25 -90 24 0 25 3 25 61 0 58 1 61 30 72 21 8 30 18 30 34 0
27 2 27 -32 9z"/>
<path d="M522 924 c-60 -25 -72 -108 -24 -156 21 -22 78 -26 110 -9 23 12 50
57 46 79 -1 6 -2 18 -3 26 -2 24 -44 65 -71 70 -14 2 -40 -2 -58 -10z m65 -42
c6 -4 14 -20 17 -35 9 -50 -48 -78 -77 -36 -32 45 15 100 60 71z"/>
<path d="M981 924 c-18 -8 -29 -9 -25 -3 4 7 -4 9 -22 7 l-28 -3 0 -120 -1
-120 26 -3 c24 -3 26 0 25 37 l-1 40 45 -6 c56 -6 80 15 87 79 4 33 0 49 -16
69 -26 34 -50 40 -90 23z m51 -59 c16 -35 -3 -75 -36 -75 -27 0 -40 14 -42 45
-2 56 56 78 78 30z"/>
<path d="M691 850 c1 -54 6 -84 16 -91 17 -15 70 -14 89 2 10 8 14 8 14 0 0
-6 11 -11 25 -11 25 0 25 1 25 90 0 89 0 90 -25 90 -24 0 -25 -2 -25 -65 0
-60 -2 -65 -24 -71 -39 -9 -46 2 -46 72 0 62 -1 64 -26 64 -25 0 -25 0 -23
-80z"/>
<path d="M1513 923 c-12 -2 -33 -17 -47 -34 -49 -58 -9 -151 67 -151 39 0 77
10 77 20 -1 24 -18 32 -45 22 -22 -8 -33 -7 -52 6 -14 8 -22 18 -20 21 3 3 33
6 66 6 34 1 61 5 61 10 0 4 0 16 0 26 0 25 -38 68 -65 74 -11 2 -30 2 -42 0z
m48 -42 c4 -1 9 -8 13 -16 4 -12 -4 -15 -41 -15 -45 0 -46 1 -29 19 10 10 25
18 34 16 9 -2 20 -4 23 -4z"/>
</g>
</svg>
